<svg width="36" height="36" viewBox="0 0 36 36" fill="none" xmlns="http://www.w3.org/2000/svg">
<path d="M17.9977 31.9959C25.7287 31.9959 31.9959 25.7287 31.9959 17.9977C31.9959 10.2667 25.7287 3.99951 17.9977 3.99951C10.2667 3.99951 3.99951 10.2667 3.99951 17.9977C3.99951 25.7287 10.2667 31.9959 17.9977 31.9959Z" stroke="#C8D7F0" stroke-opacity="0.5" stroke-width="0.999872"/>
<path d="M17.9977 24.9968C21.8632 24.9968 24.9968 21.8632 24.9968 17.9977C24.9968 14.1322 21.8632 10.9986 17.9977 10.9986C14.1322 10.9986 10.9986 14.1322 10.9986 17.9977C10.9986 21.8632 14.1322 24.9968 17.9977 24.9968Z" stroke="#C8D7F0" stroke-opacity="0.35" stroke-width="0.999872"/>
<path d="M17.9977 3.99951V31.9959" stroke="#C8D7F0" stroke-opacity="0.25" stroke-width="0.999872"/>
<path d="M3.99951 17.9977H31.9959" stroke="#C8D7F0" stroke-opacity="0.25" stroke-width="0.999872"/>
<path d="M17.998 20.498C19.3788 20.498 20.498 19.3788 20.498 17.998C20.498 16.6173 19.3788 15.498 17.998 15.498C16.6173 15.498 15.498 16.6173 15.498 17.998C15.498 19.3788 16.6173 20.498 17.998 20.498Z" fill="#C8D7F0" fill-opacity="0.7"/>
<path d="M17.9979 5.49969C18.8263 5.49969 19.4979 4.82812 19.4979 3.99969C19.4979 3.17127 18.8263 2.49969 17.9979 2.49969C17.1694 2.49969 16.4979 3.17127 16.4979 3.99969C16.4979 4.82812 17.1694 5.49969 17.9979 5.49969Z" fill="#C8D7F0" fill-opacity="0.5"/>
<path d="M17.9979 33.4961C18.8263 33.4961 19.4979 32.8245 19.4979 31.9961C19.4979 31.1677 18.8263 30.4961 17.9979 30.4961C17.1694 30.4961 16.4979 31.1677 16.4979 31.9961C16.4979 32.8245 17.1694 33.4961 17.9979 33.4961Z" fill="#C8D7F0" fill-opacity="0.5"/>
<path d="M3.99969 19.4979C4.82812 19.4979 5.49969 18.8263 5.49969 17.9979C5.49969 17.1694 4.82812 16.4979 3.99969 16.4979C3.17127 16.4979 2.49969 17.1694 2.49969 17.9979C2.49969 18.8263 3.17127 19.4979 3.99969 19.4979Z" fill="#C8D7F0" fill-opacity="0.5"/>
<path d="M31.9961 19.4979C32.8245 19.4979 33.4961 18.8263 33.4961 17.9979C33.4961 17.1694 32.8245 16.4979 31.9961 16.4979C31.1677 16.4979 30.4961 17.1694 30.4961 17.9979C30.4961 18.8263 31.1677 19.4979 31.9961 19.4979Z" fill="#C8D7F0" fill-opacity="0.5"/>
</svg>
